<svg width="1200" height="750" viewBox="0 0 1200 750" fill="none" xmlns="http://www.w3.org/2000/svg">
  <rect width="1200" height="750" fill="#0B1220"/>
  <rect x="80" y="72" width="1040" height="606" rx="30" fill="#111A2E" stroke="#263550"/>
  <rect x="122" y="118" width="194" height="514" rx="20" fill="#0D1628"/>
  <rect x="354" y="118" width="724" height="78" rx="18" fill="#0E172A" stroke="#23334E"/>
  <rect x="354" y="238" width="210" height="128" rx="18" fill="#122640" stroke="#24516B"/>
  <rect x="596" y="238" width="210" height="128" rx="18" fill="#161E38" stroke="#383C73"/>
  <rect x="838" y="238" width="240" height="128" rx="18" fill="#102A39" stroke="#236577"/>
  <rect x="354" y="408" width="456" height="224" rx="18" fill="#0E172A" stroke="#23334E"/>
  <rect x="846" y="408" width="232" height="224" rx="18" fill="#0E172A" stroke="#23334E"/>
  <path d="M406 570l72-72 74 38 90-108 88 70" stroke="#22D3EE" stroke-width="14" stroke-linecap="round" stroke-linejoin="round"/>
  <rect x="164" y="170" width="86" height="14" rx="7" fill="#DDEAFE" opacity=".75"/>
  <rect x="164" y="238" width="108" height="14" rx="7" fill="#93C5FD" opacity=".35"/>
  <rect x="164" y="294" width="92" height="14" rx="7" fill="#93C5FD" opacity=".28"/>
  <text x="394" y="170" fill="#E5EDF7" font-family="Arial, sans-serif" font-size="34" font-weight="700">Dashboard Admin Modern</text>
</svg>
