<svg width="1200" height="750" viewBox="0 0 1200 750" fill="none" xmlns="http://www.w3.org/2000/svg">
  <rect width="1200" height="750" fill="#0B1220"/>
  <rect x="90" y="80" width="1020" height="590" rx="28" fill="#111A2E" stroke="#263550"/>
  <rect x="126" y="122" width="190" height="506" rx="18" fill="#0D1628"/>
  <rect x="352" y="122" width="722" height="92" rx="18" fill="#101C33" stroke="#23334E"/>
  <rect x="352" y="246" width="210" height="132" rx="18" fill="#122640" stroke="#24516B"/>
  <rect x="592" y="246" width="210" height="132" rx="18" fill="#162040" stroke="#383C73"/>
  <rect x="832" y="246" width="242" height="132" rx="18" fill="#102A39" stroke="#236577"/>
  <rect x="352" y="418" width="722" height="210" rx="18" fill="#0E172A" stroke="#23334E"/>
  <rect x="392" y="464" width="642" height="18" rx="9" fill="#22D3EE" opacity=".55"/>
  <rect x="392" y="514" width="510" height="18" rx="9" fill="#93C5FD" opacity=".32"/>
  <rect x="392" y="564" width="586" height="18" rx="9" fill="#C4B5FD" opacity=".28"/>
  <circle cx="176" cy="176" r="30" fill="#22D3EE" opacity=".3"/>
  <rect x="136" y="246" width="140" height="14" rx="7" fill="#DDEAFE" opacity=".75"/>
  <rect x="136" y="296" width="112" height="14" rx="7" fill="#93C5FD" opacity=".45"/>
  <rect x="136" y="346" width="130" height="14" rx="7" fill="#93C5FD" opacity=".35"/>
  <text x="392" y="180" fill="#E5EDF7" font-family="Arial, sans-serif" font-size="34" font-weight="700">Sistem Informasi Sekolah</text>
  <text x="392" y="328" fill="#E5EDF7" font-family="Arial, sans-serif" font-size="28" font-weight="700">Siswa</text>
  <text x="632" y="328" fill="#E5EDF7" font-family="Arial, sans-serif" font-size="28" font-weight="700">Guru</text>
  <text x="872" y="328" fill="#E5EDF7" font-family="Arial, sans-serif" font-size="28" font-weight="700">Akademik</text>
</svg>
