<svg width="1200" height="750" viewBox="0 0 1200 750" fill="none" xmlns="http://www.w3.org/2000/svg">
  <rect width="1200" height="750" fill="#0B1220"/>
  <rect x="94" y="88" width="1012" height="574" rx="30" fill="#111A2E" stroke="#263550"/>
  <rect x="148" y="144" width="410" height="462" rx="28" fill="#101C33" stroke="#23334E"/>
  <rect x="612" y="144" width="440" height="202" rx="24" fill="#102A39" stroke="#236577"/>
  <rect x="612" y="386" width="440" height="220" rx="24" fill="#0E172A" stroke="#23334E"/>
  <rect x="196" y="212" width="314" height="186" rx="22" fill="#22D3EE" opacity=".16"/>
  <rect x="232" y="260" width="148" height="16" rx="8" fill="#E5EDF7" opacity=".8"/>
  <rect x="232" y="316" width="232" height="16" rx="8" fill="#93C5FD" opacity=".36"/>
  <rect x="196" y="462" width="314" height="58" rx="16" fill="#22D3EE" opacity=".75"/>
  <rect x="664" y="210" width="254" height="20" rx="10" fill="#E5EDF7" opacity=".82"/>
  <rect x="664" y="270" width="326" height="18" rx="9" fill="#93C5FD" opacity=".32"/>
  <rect x="664" y="456" width="300" height="18" rx="9" fill="#C4B5FD" opacity=".34"/>
  <rect x="664" y="512" width="230" height="18" rx="9" fill="#93C5FD" opacity=".28"/>
  <text x="662" y="542" fill="#E5EDF7" font-family="Arial, sans-serif" font-size="0">.</text>
  <text x="196" y="178" fill="#E5EDF7" font-family="Arial, sans-serif" font-size="30" font-weight="700">Payment System</text>
</svg>
